<?xml version="1.0" encoding="UTF-8" standalone="no"?>
<!-- Created with Inkscape (http://www.inkscape.org/) -->

<svg
   xmlns:dc="http://purl.org/dc/elements/1.1/"
   xmlns:cc="http://creativecommons.org/ns#"
   xmlns:rdf="http://www.w3.org/1999/02/22-rdf-syntax-ns#"
   xmlns:svg="http://www.w3.org/2000/svg"
   xmlns="http://www.w3.org/2000/svg"
   xmlns:sodipodi="http://sodipodi.sourceforge.net/DTD/sodipodi-0.dtd"
   xmlns:inkscape="http://www.inkscape.org/namespaces/inkscape"
   width="164.97531mm"
   height="165.04128mm"
   viewBox="0 0 164.97531 165.04128"
   version="1.1"
   id="svg8"
   sodipodi:docname="logo-filled.svg"
   inkscape:version="0.92.4 (5da689c313, 2019-01-14)">
  <defs
     id="defs2" />
  <sodipodi:namedview
     id="base"
     pagecolor="#ffffff"
     bordercolor="#666666"
     borderopacity="1.0"
     inkscape:pageopacity="0.0"
     inkscape:pageshadow="2"
     inkscape:zoom="5.6"
     inkscape:cx="299.15255"
     inkscape:cy="332.13148"
     inkscape:document-units="mm"
     inkscape:current-layer="layer3"
     showgrid="false"
     inkscape:window-width="1080"
     inkscape:window-height="1867"
     inkscape:window-x="1912"
     inkscape:window-y="-8"
     inkscape:window-maximized="1"
     fit-margin-top="0"
     fit-margin-left="0"
     fit-margin-right="0"
     fit-margin-bottom="0" />
  <metadata
     id="metadata5">
    <rdf:RDF>
      <cc:Work
         rdf:about="">
        <dc:format>image/svg+xml</dc:format>
        <dc:type
           rdf:resource="http://purl.org/dc/dcmitype/StillImage" />
        <dc:title />
      </cc:Work>
    </rdf:RDF>
  </metadata>
  <g
     inkscape:groupmode="layer"
     id="layer1"
     inkscape:label="background">
    <ellipse
       style="opacity:1;fill:#ffffff;fill-opacity:1;stroke:#ffffff;stroke-width:0.31473571;stroke-miterlimit:4;stroke-dasharray:none;stroke-opacity:1"
       id="path835"
       cx="80.314484"
       cy="80.183197"
       rx="67.210915"
       ry="66.676384" />
  </g>
  <g
     inkscape:groupmode="layer"
     id="layer4"
     inkscape:label="Center Circle"
     style="display:inline"
     transform="translate(-20.843843,-75.155957)">
    <ellipse
       style="opacity:1;fill:#ed3423;fill-opacity:1;stroke:#ed3423;stroke-width:0.89422244;stroke-miterlimit:4;stroke-dasharray:none;stroke-opacity:1"
       id="path1266"
       cx="99.880211"
       cy="154.608"
       rx="19.265701"
       ry="19.434698" />
  </g>
  <g
     inkscape:groupmode="layer"
     id="layer3"
     inkscape:label="Fujiyama"
     transform="translate(-20.843843,-75.155957)">
    <path
       style="fill:none;stroke:#999999;stroke-width:1;stroke-linecap:butt;stroke-linejoin:miter;stroke-miterlimit:4;stroke-dasharray:none;stroke-opacity:1"
       d="m 41.104911,200.89955 c 0,0 27.78125,-19.84375 30.049106,-55.65699 27.214284,0 27.214284,0 27.214284,0 3.590779,39.30952 36.758189,61.13765 36.758189,61.13765 2.38368,1.68585 2.38368,1.68585 2.38368,1.68585"
       id="path1241"
       inkscape:connector-curvature="0" />
    <path
       style="fill:none;stroke:#999999;stroke-width:0.40000001;stroke-linecap:butt;stroke-linejoin:miter;stroke-miterlimit:4;stroke-dasharray:none;stroke-opacity:1"
       d="m 69.423258,157.88621 4.476766,8.68626 4.142676,-7.61718 4.075861,10.02261 5.078122,-13.89802 3.407685,9.6217 2.605879,-6.48128 4.009043,10.49032 3.74177,-8.95353 h -0.0668"
       id="path1252"
       inkscape:connector-curvature="0" />
    <path
       style="fill:none;stroke:#999999;stroke-width:0.26458332px;stroke-linecap:butt;stroke-linejoin:miter;stroke-opacity:1"
       d="m 41.104909,200.89955 39.744123,22.46769 53.988448,-3.0736 17.77342,-22.58427"
       id="path1260"
       inkscape:connector-curvature="0" />
    <path
       style="fill:none;stroke:#999999;stroke-width:0.2544938px;stroke-linecap:butt;stroke-linejoin:miter;stroke-opacity:1"
       d="M 151.67546,199.64707 H 126.88621"
       id="path1262"
       inkscape:connector-curvature="0" />
    <path
       style="opacity:1;fill:#999999;fill-opacity:1;stroke:#999999;stroke-width:1.90866148;stroke-miterlimit:4;stroke-dasharray:none;stroke-opacity:1"
       d="m 232.48702,802.11155 c -40.00204,-22.64302 -73.07191,-41.38231 -73.4886,-41.64286 -0.86514,-0.54096 -1.47945,0.0671 7.88054,-7.80021 8.05715,-6.77223 23.77259,-22.52678 31.59684,-31.67547 26.84654,-31.39097 46.03734,-64.48899 58.20594,-100.38674 1.7449,-5.14753 3.81618,-11.74563 4.60282,-14.66245 0.78665,-2.91681 1.56119,-5.46089 1.72119,-5.6535 0.16001,-0.19261 3.77063,6.45046 8.0236,14.76237 4.25297,8.31192 7.9048,15.21896 8.11517,15.34898 0.21037,0.13002 3.77406,-6.00166 7.91931,-13.62595 4.14525,-7.6243 7.65288,-13.86131 7.79474,-13.86003 0.14185,10e-4 3.65979,8.40683 7.81763,18.67899 4.15785,10.27216 7.70067,18.51017 7.87293,18.30669 0.17226,-0.20349 4.49805,-11.88187 9.61286,-25.95196 5.11483,-14.07009 9.34854,-25.53697 9.40827,-25.48194 0.0597,0.055 2.84363,7.81673 6.18645,17.24823 3.34282,9.4315 6.21092,17.48911 6.37355,17.90579 0.16776,0.42985 2.42349,-4.5551 5.21392,-11.52226 l 4.91824,-12.27988 4.95629,13.03749 c 8.38362,22.05307 9.94404,25.9315 10.33569,25.68945 0.20787,-0.12847 3.31165,-7.26149 6.8973,-15.85116 l 6.51935,-15.61758 3.08512,8.90332 c 13.94623,40.24722 35.14883,76.25312 65.32197,110.92872 11.99117,13.7805 31.94934,32.96827 46.00108,44.22541 6.64882,5.32651 22.39187,16.63628 23.15748,16.63628 0.28177,0 0.98441,-0.66299 1.5614,-1.4733 l 1.04909,-1.47331 -6.94934,-4.91302 c -9.30954,-6.58162 -17.84595,-13.18266 -24.86202,-19.2253 l -5.79086,-4.98741 21.61236,-0.13172 c 11.8868,-0.0725 31.17119,-0.0725 42.8542,0 l 21.24183,0.13172 -29.90742,38.00776 c -20.04274,25.47127 -30.2686,38.07912 -31.00242,38.22409 -1.24405,0.24577 -199.91937,11.45857 -201.86282,11.39269 -0.69448,-0.0235 -33.99164,-18.56891 -73.99368,-41.21193 z"
       id="path1264"
       inkscape:connector-curvature="0"
       transform="scale(0.26458333)" />
    <path
       style="opacity:1;fill:#ffffff;fill-opacity:1;stroke:#ffffff;stroke-width:0.75590552;stroke-miterlimit:4;stroke-dasharray:none;stroke-opacity:1"
       d="m 302.71179,617.62866 c -4.16718,-10.25068 -7.625,-18.60774 -7.68405,-18.57125 -0.059,0.0365 -3.59921,6.49356 -7.86703,14.34904 -4.26782,7.85548 -7.81846,14.22665 -7.8903,14.15816 -0.0718,-0.0685 -3.6344,-6.91218 -7.91679,-15.20819 l -7.78617,-15.08367 0.18282,-0.89285 c 0.10055,-0.49107 0.51066,-2.331 0.91135,-4.08873 2.19596,-9.63304 3.95904,-20.13854 5.0828,-30.28627 0.3998,-3.61024 0.9959,-10.06905 0.9959,-10.79064 0,-0.25467 4.61882,-0.28079 49.64285,-0.28079 40.06918,0 49.64286,0.0438 49.64286,0.22728 0,0.12501 0.20086,1.99331 0.44635,4.15179 1.74257,15.3213 4.99309,31.77521 9.09605,46.04356 0.44811,1.55834 0.81474,2.91103 0.81474,3.00597 0,0.13117 -6.65264,16.13476 -12.55217,30.19549 l -0.35925,0.85623 -1.41732,-3.71337 c -10.26078,-26.88328 -13.57901,-35.52126 -13.68958,-35.63666 -0.0725,-0.0757 -2.28549,5.22791 -4.91775,11.78571 -2.63226,6.55781 -4.83643,11.97872 -4.89814,12.04647 -0.0617,0.0678 -2.97633,-7.96797 -6.47693,-17.85714 -3.50059,-9.88918 -6.42486,-17.98033 -6.49837,-17.98033 -0.0735,0 -4.416,11.72 -9.64997,26.04445 -5.23397,14.32444 -9.54307,26.0712 -9.57577,26.10389 -0.0327,0.0327 -3.46896,-8.32747 -7.63613,-18.57815 z"
       id="path1268"
       inkscape:connector-curvature="0"
       transform="scale(0.26458333)" />
  </g>
  <g
     inkscape:groupmode="layer"
     id="layer2"
     inkscape:label="Sitecore Logo"
     style="display:inline"
     transform="translate(-20.843843,-75.155957)">
    <path
       id="path871"
       transform="scale(0.26458333)"
       style="opacity:1;fill:#ed3423;fill-opacity:1;stroke:#ed3423;stroke-width:0.95447487;stroke-miterlimit:4;stroke-dasharray:none;stroke-opacity:1"
       d="m 390.38477,284.53125 c -13.31356,0 -26.62732,0.48863 -34.97266,1.46484 -48.77869,5.70595 -95.25453,22.46691 -135.23828,48.77344 -78.15011,51.41735 -127.974738,131.90307 -139.599611,225.50781 -1.968541,15.85091 -1.661149,58.94254 0.533203,74.75196 6.770856,48.78126 23.340988,93.3717 48.998048,131.85351 13.8399,20.75783 21.15743,29.63917 40.01562,48.57617 17.54404,17.61736 30.58293,28.45639 48.31836,40.16211 47.2074,31.15774 97.12625,47.51319 157.29688,51.53711 9.82169,0.65682 38.52283,-0.43717 51.10937,-1.94726 57.98065,-6.95636 112.15438,-29.43516 156.98242,-65.13867 36.43701,-29.02043 65.38213,-64.93622 85.875,-106.55469 21.09903,-42.84947 30.58799,-81.05167 31.98633,-128.79297 C 703.35114,547.99215 690.4156,494.1036 663.45312,445.42969 614.24263,356.5926 526.47951,297.82497 425.35742,285.99609 c -8.34534,-0.97621 -21.6591,-1.46484 -34.97265,-1.46484 z m 1.04687,81.83398 c 19.05821,0.15795 38.38721,2.49083 55.63867,6.92188 40.47523,10.3961 80.02852,33.94455 108.41407,64.54687 32.22316,34.73967 52.06276,76.04031 59.30664,123.45313 2.47625,16.20986 2.47879,48.78082 0.004,64.65039 -8.05266,51.63533 -31.23861,97.03179 -67.16992,131.51953 -34.75336,33.3571 -75.67913,53.65183 -123.90625,61.44141 -10.78443,1.74189 -31.84816,2.57844 -46.4668,1.8457 -97.87904,-4.90609 -183.15877,-75.90382 -206.64648,-172.03711 -5.06254,-20.72059 -6.41211,-32.31018 -6.41211,-55.09375 0,-23.52391 1.4956,-35.71547 7.02734,-57.29883 21.7355,-84.80611 91.18751,-149.94729 177.33789,-166.33203 13.39117,-2.54683 28.05,-3.74003 42.87305,-3.61719 z"
       inkscape:connector-curvature="0" />
    <path
       style="opacity:1;fill:#ed3423;fill-opacity:1;stroke:#ed3423;stroke-width:0.47723743;stroke-miterlimit:4;stroke-dasharray:none;stroke-opacity:1"
       d="m 372.6462,808.45367 c -68.56143,-5.98691 -128.86541,-42.76502 -165.39195,-100.86903 -1.61926,-2.57582 -2.8369,-4.79052 -2.70586,-4.92156 0.13104,-0.13104 1.84952,1.63552 3.81884,3.92569 7.7984,9.06893 21.60265,21.91887 32.23294,30.00462 18.42393,14.01385 42.37716,26.28287 65.12343,33.35668 28.84372,8.97004 61.02684,11.57977 91.67134,7.43364 49.33373,-6.67475 96.81446,-32.1948 129.82624,-69.77929 5.59601,-6.37116 13.00604,-15.85576 16.39909,-20.9903 1.06326,-1.60896 2.18199,-2.82991 2.48609,-2.71322 0.3041,0.1167 7.0783,4.50761 15.05378,9.75759 l 14.50089,9.54541 -3.67209,5.79471 c -23.47814,37.04946 -57.81436,66.10165 -98.32748,83.19577 -18.3632,7.74818 -38.033,12.92587 -59.09393,15.55532 -7.55256,0.94293 -34.08277,1.38845 -41.92133,0.70397 z"
       id="path891"
       inkscape:connector-curvature="0"
       transform="scale(0.26458333)" />
    <path
       style="opacity:0;fill:#ed3423;fill-opacity:1;stroke:#ed3423;stroke-width:0.06749156;stroke-miterlimit:4;stroke-dasharray:none;stroke-opacity:1"
       d="m 561.41364,678.16522 -20.71429,-13.06692 3.60714,-7.21968 c 11.34939,-22.7157 18.53732,-49.16541 20.00858,-73.62634 l 0.24167,-4.01786 h 20.24856 20.24857 l 0.23345,4.34179 c 0.71467,13.29124 -0.36624,30.62351 -2.814,45.1225 -3.27673,19.40925 -9.88384,40.23966 -18.00938,56.77863 l -2.33602,4.75481 z"
       id="path1163"
       inkscape:connector-curvature="0"
       transform="scale(0.26458333)" />
    <path
       style="opacity:1;fill:#ed3423;fill-opacity:1;stroke:#ed3423;stroke-width:0.94488192;stroke-miterlimit:4;stroke-dasharray:none;stroke-opacity:1"
       d="M 526.2168 296.11719 L 504.49023 296.18164 L 485.43164 296.23828 L 485.44727 296.13672 L 474.95312 296.13672 L 464.45703 296.13672 L 464.02539 302.29688 C 462.54901 323.3779 457.49053 342.34061 448.24805 361.43164 C 443.6314 370.96767 439.59144 377.82424 433.69336 386.13672 C 422.19341 402.34422 406.41912 417.92651 389.52148 429.76953 C 366.10656 446.18032 339.47987 457.46754 310.59375 463.22656 C 273.76622 470.56886 235.08129 468.21614 199.56445 456.47656 C 196.03486 455.30991 193.08562 454.41633 193.01172 454.49023 C 192.93783 454.56412 194.61472 455.5889 196.73633 456.76758 C 222.49023 471.07533 251.21016 479.42391 280.41406 481.0918 C 321.83502 483.45742 363.63221 472.13835 398.27148 449.17578 C 424.05099 432.0864 444.98757 409.61055 460.0625 383.02344 C 462.46681 384.43332 468.7166 388.08534 479.2168 394.21094 L 501.58203 407.25781 L 503.55273 403.52344 C 516.44043 379.09559 523.91584 352.89292 526.30469 323.77344 C 526.67999 319.19548 526.77388 301.0516 526.4375 298.07617 L 526.2168 296.11719 z "
       transform="matrix(0.26458333,0,0,0.26458333,20.843843,75.155957)"
       id="path1167" />
    <path
       style="fill:none;stroke:#ed3423;stroke-width:0.025;stroke-linecap:butt;stroke-linejoin:miter;stroke-miterlimit:4;stroke-dasharray:none;stroke-opacity:1"
       d="m 160.37597,150.20063 c -20.26898,0 -20.26898,0 -20.26898,0"
       id="path1188"
       inkscape:connector-curvature="0" />
    <path
       style="opacity:1;fill:#ed3423;fill-opacity:1;stroke:#ed3423;stroke-width:1.3345921;stroke-miterlimit:4;stroke-dasharray:none;stroke-opacity:1"
       d="M 486.00977 184.58594 C 485.83878 184.58594 474.78116 191.59671 461.4375 200.16406 L 437.17578 215.74023 L 437.18555 215.76562 C 432.29626 218.71622 418.9082 227.523 418.9082 227.89844 C 418.9082 228.14286 419.57076 230.00665 420.38086 232.04102 C 437.64525 275.39707 434.40616 325.17461 411.66406 365.98047 C 388.39113 407.73884 348.62341 438.09544 299.55664 451.55664 C 294.0632 453.06369 294.04796 453.07158 297.3457 452.7832 C 302.46772 452.3354 314.80319 449.73582 322.67383 447.44531 C 359.52751 436.72015 391.20435 415.79146 415.02539 386.42578 C 423.97902 375.38805 434.46989 357.58211 440.00977 344.02344 C 447.89707 324.71951 452.02917 304.19792 452.41406 283.63281 L 487.95312 283.63281 L 525.14844 283.63281 L 524.84375 281.57812 C 523.83125 274.76847 522.90255 269.54648 521.80664 264.50391 C 516.86937 241.78672 508.17137 219.81496 496.18555 199.7832 C 492.9782 194.42281 486.39191 184.58594 486.00977 184.58594 z "
       transform="matrix(0.26458333,0,0,0.26458333,20.843843,75.155957)"
       id="path1190" />
  </g>
</svg>
